<?xml version="1.0" encoding="UTF-8"?>
<svg width="20px" height="20px" viewBox="0 0 20 20" version="1.1" xmlns="http://www.w3.org/2000/svg" xmlns:xlink="http://www.w3.org/1999/xlink">
    <title>pc图标/账号</title>
    <g id="控件" stroke="none" stroke-width="1" fill="none" fill-rule="evenodd">
        <g id="编组-4" fill="#FFFFFF">
            <circle id="椭圆形" stroke-opacity="0.7" stroke="#FFFFFF" fill-opacity="0.4" cx="10" cy="10" r="9.5"></circle>
            <path d="M10.2266667,4.54533333 C8.51720007,4.54611407 7.11556408,5.90088148 7.05666667,7.60933333 L7.05466667,7.718 L7.05466667,9.55533333 C7.0539227,10.6467904 7.61484108,11.6618335 8.53933333,12.242 L8.642,12.304 L9.23133333,12.644 C9.2874285,12.676545 9.32196779,12.7364809 9.322,12.8013333 L9.324,14.344 C9.324,14.4113333 9.28733333,14.4733333 9.228,14.504 L5.49133333,16.5026667 L4.78133333,16.8813333 C5.08666667,17.1026667 5.32,17.2613333 5.48133333,17.3613333 C6.84009128,18.1972981 8.40467773,18.6386509 10,18.6360119 C11.752,18.6360119 13.382,18.114 14.7433333,17.2173333 C14.892,17.12 15.1073333,16.9626667 15.39,16.748 L14.72,16.3866667 L11.2266667,14.504 C11.1676819,14.4723749 11.1308137,14.4109278 11.1306667,14.344 L11.1326667,12.8006667 C11.1326667,12.736 11.1673333,12.676 11.2233333,12.644 L11.8126667,12.3026667 C12.7575706,11.758011 13.3561344,10.7658605 13.3973333,9.676 L13.3993333,9.554 L13.3993333,7.71733333 C13.3995102,6.87595113 13.0653963,6.06896923 12.4705118,5.47395965 C11.8756272,4.87895006 11.0687156,4.54466667 10.2273333,4.54466667 L10.2266667,4.54533333 Z" id="路径" fill-rule="nonzero" opacity="0.8"></path>
        </g>
    </g>
</svg>