<?xml version="1.0" encoding="UTF-8"?>
<svg width="20px" height="20px" viewBox="0 0 20 20" version="1.1" xmlns="http://www.w3.org/2000/svg" xmlns:xlink="http://www.w3.org/1999/xlink">
    <title>pc图标/小屏</title>
    <g id="控件" stroke="none" stroke-width="1" fill="none" fill-rule="evenodd">
        <g id="pc图标/小屏" stroke="#F3F3F3" stroke-width="1.5">
            <polyline id="路径" transform="translate(5.250000, 15.250000) scale(-1, 1) translate(-5.250000, -15.250000) " points="3.25 17.25 3.25 13.25 7.25 13.25"></polyline>
            <polyline id="路径备份" transform="translate(15.250000, 5.250000) scale(1, -1) translate(-15.250000, -5.250000) " points="13.25 7.25 13.25 3.25 17.25 3.25"></polyline>
            <polyline id="路径" transform="translate(5.250000, 5.250000) scale(-1, -1) translate(-5.250000, -5.250000) " points="3.25 7.25 3.25 3.25 7.25 3.25"></polyline>
            <polyline id="路径备份" points="13.25 17.25 13.25 13.25 17.25 13.25"></polyline>
            <line x1="3.25" y1="3.25" x2="7.02321062" y2="7.25" id="路径-7"></line>
            <line x1="3.25" y1="13.25" x2="7.02321062" y2="17.25" id="路径-7备份" transform="translate(5.136605, 15.250000) scale(1, -1) translate(-5.136605, -15.250000) "></line>
            <line x1="13.25" y1="3.25" x2="17.0232106" y2="7.25" id="路径-7" transform="translate(15.136605, 5.250000) scale(-1, 1) translate(-15.136605, -5.250000) "></line>
            <line x1="13.25" y1="13.25" x2="17.0232106" y2="17.25" id="路径-7备份-2" transform="translate(15.136605, 15.250000) scale(-1, -1) translate(-15.136605, -15.250000) "></line>
        </g>
    </g>
</svg>