<?xml version="1.0" encoding="UTF-8"?>
<svg width="20px" height="20px" viewBox="0 0 20 20" version="1.1" xmlns="http://www.w3.org/2000/svg" xmlns:xlink="http://www.w3.org/1999/xlink">
    <title>pc图标/刷新</title>
    <g id="控件" stroke="none" stroke-width="1" fill="none" fill-rule="evenodd">
        <g id="pc图标/刷新" fill="#F3F3F3" fill-rule="nonzero">
            <path d="M10.0011995,1 C5.02997424,1 1,5.02943753 1,10 C1,14.9705627 5.02997424,19 10.0011995,19 C12.388551,19.0003187 14.6781618,18.0519681 16.3659366,16.363743 C18.0537115,14.6755179 19.0012725,12.3858332 19,9.99880012 C19.0009541,7.61208523 18.0532142,5.32283211 16.3654394,3.63505716 C14.6776645,1.94728221 12.3882326,0.999363333 10.0011995,1 Z" id="路径" stroke-opacity="0.5" stroke="#F3F3F3" opacity="0.2"></path>
            <path d="M6.21275521,13.7711919 L4.06876526,10.9901865 C3.90300531,10.7833555 4.05666599,10.4643871 4.31922007,10.4643871 L5.19399701,10.4643871 C5.20609627,9.50249818 5.63078051,5.84183785 10.9157399,5.00080799 C10.998015,4.98959426 11.0318929,5.09799367 10.9629271,5.1465865 C8.20187456,6.79500502 8.20187456,8.8545937 8.17888596,10.4756009 L9.01978495,10.4756009 C9.27749932,10.4756009 9.42390044,10.7920773 9.26781991,10.9889406 L7.12503988,13.769946 C7.01563855,13.9148759 6.84745017,13.999756 6.66919303,14 C6.49093589,14.0002429 6.32252946,13.9158225 6.21275521,13.7711919 L6.21275521,13.7711919 Z" id="路径"></path>
            <path d="M15.6892336,9.5405803 L14.8111472,9.5405803 C14.7990356,10.5150659 14.3739207,14.1578746 9.08602342,14.9991929 C9.00366496,15.0103939 8.96733035,14.9021177 9.03636611,14.8535801 C11.7990078,13.2082801 11.7990078,11.1485437 11.8256532,9.52813476 L10.9839013,9.52813476 C10.7259256,9.52813476 10.5721091,9.21077356 10.7356148,9.0054222 L12.8708789,6.22757829 C12.980629,6.08390424 13.148525,6 13.3262727,6 C13.5040204,6 13.6719163,6.08390424 13.7816665,6.22757829 L15.9302532,9.0054222 C16.093759,9.21077356 15.952054,9.52813476 15.6892336,9.5405803 L15.6892336,9.5405803 Z" id="路径"></path>
        </g>
    </g>
</svg>