<?xml version="1.0" encoding="UTF-8"?>
<svg width="40px" height="40px" viewBox="0 0 40 40" version="1.1" xmlns="http://www.w3.org/2000/svg" xmlns:xlink="http://www.w3.org/1999/xlink">
    <title>播放器快进10s</title>
    <defs>
        <filter color-interpolation-filters="auto" id="filter-1">
            <feColorMatrix in="SourceGraphic" type="matrix" values="0 0 0 0 0.952543 0 0 0 0 0.952680 0 0 0 0 0.952513 0 0 0 1.000000 0"></feColorMatrix>
        </filter>
        <rect id="path-2" x="0" y="0" width="40" height="40"></rect>
    </defs>
    <g id="专家端" stroke="none" stroke-width="1" fill="none" fill-rule="evenodd">
        <g id="播放器快进10s" transform="translate(-1270.000000, -479.000000)" filter="url(#filter-1)">
            <g transform="translate(1290.000000, 499.000000) scale(-1, 1) translate(-1290.000000, -499.000000) translate(1270.000000, 479.000000)">
                <mask id="mask-3" fill="white">
                    <use xlink:href="#path-2"></use>
                </mask>
                <g id="蒙版"></g>
                <path d="M30.2432695,12 C30.7955542,12 31.2432695,12.4477153 31.2432695,13 L31.2432695,13 L31.2432695,27.1828633 C31.2432695,27.3862678 31.1812415,27.5848358 31.0654617,27.7520733 C30.7510957,28.2061575 30.1281437,28.3194215 29.6740595,28.0050555 L29.6740595,28.0050555 L21.243,22.168 L21.2432695,27.1828633 C21.2432695,27.3455869 21.2035716,27.5052151 21.1284132,27.6481831 L21.0654617,27.7520733 C20.7510957,28.2061575 20.1281437,28.3194215 19.6740595,28.0050555 L19.6740595,28.0050555 L9.43088044,20.9136239 C9.33203107,20.8451897 9.2463324,20.759491 9.17789823,20.6606416 C8.86353223,20.2065574 8.97679623,19.5836055 9.43088044,19.2692395 L9.43088044,19.2692395 L19.6740595,12.1778078 C19.8412971,12.062028 20.039865,12 20.2432695,12 C20.7955542,12 21.2432695,12.4477153 21.2432695,13 L21.2432695,13 L21.243,18.014 L29.6740595,12.1778078 C29.8078496,12.0851839 29.9616911,12.0269613 30.1220192,12.0073771 Z" id="形状结合" fill="#FFFFFF" mask="url(#mask-3)"></path>
            </g>
        </g>
    </g>
</svg>