<?xml version="1.0" encoding="UTF-8"?>
<svg width="20px" height="20px" viewBox="0 0 20 20" version="1.1" xmlns="http://www.w3.org/2000/svg" xmlns:xlink="http://www.w3.org/1999/xlink">
    <title>pc图标/全屏</title>
    <defs>
        <filter color-interpolation-filters="auto" id="filter-1">
            <feColorMatrix in="SourceGraphic" type="matrix" values="0 0 0 0 0.952543 0 0 0 0 0.952680 0 0 0 0 0.952513 0 0 0 1.000000 0"></feColorMatrix>
        </filter>
    </defs>
    <g id="控件" stroke="none" stroke-width="1" fill="none" fill-rule="evenodd">
        <g id="pc图标/全屏">
            <g id="编组" transform="translate(10.250000, 10.250000) scale(1, -1) translate(-10.250000, -10.250000) translate(3.250000, 3.250000)" stroke="#F3F3F3" stroke-width="1.5">
                <polyline id="路径" points="0 4 0 0 4 0"></polyline>
                <polyline id="路径备份" transform="translate(12.000000, 12.000000) scale(-1, -1) translate(-12.000000, -12.000000) " points="10 14 10 10 14 10"></polyline>
            </g>
            <g filter="url(#filter-1)" id="编组-2">
                <g transform="translate(3.250000, 3.250000)">
                    <g id="编组" stroke="#F3F3F3" stroke-width="1.5">
                        <polyline id="路径" points="0 4 0 0 4 0"></polyline>
                        <polyline id="路径备份" transform="translate(12.000000, 12.000000) scale(-1, -1) translate(-12.000000, -12.000000) " points="10 14 10 10 14 10"></polyline>
                    </g>
                    <line x1="0" y1="0" x2="3.77321062" y2="4" id="路径-7" stroke="#FFFFFF" stroke-width="1.5"></line>
                    <line x1="0" y1="10" x2="3.77321062" y2="14" id="路径-7备份" stroke="#FFFFFF" stroke-width="1.5" transform="translate(1.886605, 12.000000) scale(1, -1) translate(-1.886605, -12.000000) "></line>
                    <line x1="10" y1="0" x2="13.7732106" y2="4" id="路径-7" stroke="#FFFFFF" stroke-width="1.5" transform="translate(11.886605, 2.000000) scale(-1, 1) translate(-11.886605, -2.000000) "></line>
                    <line x1="10" y1="10" x2="13.7732106" y2="14" id="路径-7备份-2" stroke="#FFFFFF" stroke-width="1.5" transform="translate(11.886605, 12.000000) scale(-1, -1) translate(-11.886605, -12.000000) "></line>
                </g>
            </g>
        </g>
    </g>
</svg>