<?xml version="1.0" encoding="UTF-8"?>
<svg width="20px" height="20px" viewBox="0 0 20 20" version="1.1" xmlns="http://www.w3.org/2000/svg" xmlns:xlink="http://www.w3.org/1999/xlink">
    <title>pc图标/标注</title>
    <defs>
        <rect id="path-1" x="0" y="0" width="20" height="20"></rect>
        <linearGradient x1="50%" y1="0%" x2="50%" y2="100%" id="linearGradient-3">
            <stop stop-color="#E02020" offset="0%"></stop>
            <stop stop-color="#FA6400" offset="16.7194618%"></stop>
            <stop stop-color="#F7B500" offset="33.3898731%"></stop>
            <stop stop-color="#6DD400" offset="50.0513863%"></stop>
            <stop stop-color="#0091FF" offset="66.5668601%"></stop>
            <stop stop-color="#6236FF" offset="83.3200233%"></stop>
            <stop stop-color="#B620E0" offset="100%"></stop>
        </linearGradient>
    </defs>
    <g id="控件" stroke="none" stroke-width="1" fill="none" fill-rule="evenodd">
        <g id="路径-+-形状-蒙版">
            <mask id="mask-2" fill="white">
                <use xlink:href="#path-1"></use>
            </mask>
            <g id="蒙版"></g>
            <path d="M12.5664063,19.4101563 C12.0429688,19.4101563 11.5664063,19.0566406 11.4316406,18.5273438 C11.2714844,17.9003906 11.6523438,17.2617188 12.2792969,17.1035156 C12.2929688,17.0996094 13.78125,16.7109375 15.1425781,15.8886719 C15.8769531,15.4453125 16.4238281,14.9667969 16.7714844,14.4667969 C17.1464844,13.9296875 17.2773438,13.3730469 17.1738281,12.7675781 C17.0351563,11.953125 16.7617188,11.7675781 16.671875,11.7070313 C16.3730469,11.5039063 15.8007813,11.4375 14.9707031,11.5078125 C13.9882813,11.5917969 12.71875,11.8574219 11.25,12.1660156 C9.671875,12.4960938 7.8828125,12.8710938 5.81835938,13.1640625 C4.7421875,13.3164063 3.84570313,13.2773438 3.078125,13.0449219 C2.27734375,12.8027344 1.6484375,12.3535156 1.20703125,11.7109375 C0.658203125,10.9101563 0.439453125,9.83984375 0.556640625,8.53125 C0.638671875,7.61132813 0.888671875,6.55078125 1.30078125,5.37890625 C1.97851563,3.4453125 2.86523438,1.85546875 2.90234375,1.7890625 C3.21875,1.22460938 3.93359375,1.0234375 4.49804688,1.33984375 C5.0625,1.65625 5.26367188,2.36914063 4.94726563,2.93359375 C4.93945313,2.94921875 4.11132813,4.4375 3.50195313,6.18359375 C2.515625,9.01367188 2.91992188,10.0664063 3.140625,10.3867188 C3.22460938,10.5097656 3.38085938,10.6875 3.7578125,10.8007813 C4.18554688,10.9296875 4.76757813,10.9433594 5.48828125,10.8417969 C7.47460938,10.5605469 9.22460938,10.1933594 10.7675781,9.87109375 C12.3105469,9.54882813 13.6445313,9.26953125 14.7675781,9.171875 C15.4140625,9.1171875 15.9628906,9.125 16.4453125,9.1953125 C17.0488281,9.28515625 17.5527344,9.47265625 17.9863281,9.76757813 C18.3964844,10.046875 18.734375,10.421875 18.9863281,10.8789063 C19.21875,11.3007813 19.3808594,11.7890625 19.4804688,12.3710938 C19.5898438,13.015625 19.5683594,13.6503906 19.4121094,14.2617188 C19.2714844,14.8085938 19.0234375,15.3359375 18.6757813,15.8320313 C18.1328125,16.6015625 17.3359375,17.3046875 16.3085938,17.9199219 C14.6542969,18.9101563 12.9296875,19.3554688 12.8554688,19.3730469 C12.7578125,19.3984375 12.6621094,19.4101563 12.5664063,19.4101563 Z" id="路径" fill="url(#linearGradient-3)" fill-rule="nonzero" mask="url(#mask-2)"></path>
            <path d="M11.45,12.4333333 C11.8045177,12.760412 12.2676797,12.9444892 12.75,12.95 C12.842755,12.9576679 12.9341867,12.9241429 13,12.8583333 L18.425,7.66666666 C18.8274163,7.26956107 19.0455013,6.72230795 19.0265083,6.15726722 C19.0075154,5.5922265 18.7531741,5.06085324 18.325,4.69166666 C17.910288,4.33389485 17.3678932,4.1601922 16.822497,4.21048811 C16.2771008,4.26078402 15.7756208,4.53075177 15.4333333,4.95833334 L10.9666667,11.075 C10.9110159,11.1519231 10.8898823,11.2485338 10.9083333,11.3416667 C10.9719893,11.7527081 11.1611858,12.1340117 11.45,12.4333333 Z M5.16666666,15.3583333 C5.54033381,15.4604978 5.93826771,15.3212209 6.16666666,15.0083333 C6.53333332,14.475 6.64166666,13.3416667 7.43333334,12.6416667 C8.02251246,12.096463 8.81839261,11.8321822 9.61666666,11.9166667 C9.711152,11.9285606 9.78791656,11.99865 9.80833334,12.0916667 C9.88375869,12.6388427 10.1563865,13.1396482 10.575,13.5 C11.0596599,13.807823 11.5961126,14.0252276 12.1583333,14.1416667 C12.2602204,14.1581726 12.3346617,14.2467932 12.3333333,14.35 C12.3833333,15.0833333 12.3333333,17.85 8.68333334,17.7333333 C4.5,17.6666667 4.8,15.225 5.16666666,15.3583333 Z" id="形状" fill="#FFFFFF" fill-rule="nonzero" mask="url(#mask-2)"></path>
        </g>
    </g>
</svg>