<?xml version="1.0" encoding="UTF-8"?>
<svg width="160px" height="84px" viewBox="0 0 160 84" version="1.1" xmlns="http://www.w3.org/2000/svg" xmlns:xlink="http://www.w3.org/1999/xlink">
    <title>蒙版</title>
    <defs>
        <rect id="path-1" x="0" y="0" width="160" height="84"></rect>
        <filter color-interpolation-filters="auto" id="filter-3">
            <feColorMatrix in="SourceGraphic" type="matrix" values="0 0 0 0 1.000000 0 0 0 0 1.000000 0 0 0 0 1.000000 0 0 0 1.000000 0"></feColorMatrix>
        </filter>
    </defs>
    <g id="专家端" stroke="none" stroke-width="1" fill="none" fill-rule="evenodd">
        <g id="pc" transform="translate(-1145.000000, -312.000000)">
            <g id="顶部图标" transform="translate(1145.000000, 312.000000)">
                <mask id="mask-2" fill="white">
                    <use xlink:href="#path-1"></use>
                </mask>
                <g id="蒙版"></g>
                <g filter="url(#filter-3)" id="编组-2">
                    <g mask="url(#mask-2)">
                        <g transform="translate(39.000000, 30.000000)">
                            <path d="M29.1855956,0.0332409972 L29.1855956,8.70914127 L29.177747,8.96121884 C29.1515851,9.3767313 29.0600185,9.76915974 28.9030471,10.1385042 C28.7146814,10.5817175 28.4542936,10.9695291 28.1218837,11.3019391 C27.7894737,11.634349 27.401662,11.8947368 26.9584488,12.0831025 C26.5152355,12.2714681 26.0387812,12.365651 25.5290859,12.365651 L25.5290859,12.365651 L15.9889197,12.365651 L15.9889197,0.0332409972 L29.1855956,0.0332409972 Z M24.565097,3.32409972 L20.6094183,3.32409972 L20.6094183,9.07479224 L23.534626,9.07479224 C23.8227147,9.07479224 24.066482,8.97506925 24.265928,8.77562327 C24.465374,8.57617729 24.565097,8.33240997 24.565097,8.04432133 L24.565097,8.04432133 L24.565097,3.32409972 Z" id="形状结合" fill="#1A1A1A" fill-rule="nonzero"></path>
                            <polygon id="路径" fill="#1A1A1A" fill-rule="nonzero" points="5.41828255 12.365651 8.3434903 9.83933518 10.4709141 12.365651 15.0914127 12.365651 12.199446 8.97506925 14.6592798 8.97506925 14.6592798 5.68421053 10.3379501 5.68421053 10.3379501 4.48753463 14.4598338 4.48753463 14.4598338 1.1966759 5.75069252 1.1966759 6.14958449 0.0332409972 1.56232687 0.0332409972 0 4.48753463 5.71745152 4.48753463 5.71745152 5.68421053 0 5.68421053 0 8.97506925 3.98891967 8.97506925 0.0664819945 12.365651"></polygon>
                            <path d="M28.7867036,13.1966759 L28.7867036,19.7451524 L28.7686981,20.0406279 C28.7271468,20.5269314 28.6278855,20.9824561 28.4709141,21.4072022 C28.2825485,21.9168975 28.0221607,22.3601108 27.6897507,22.7368421 C27.3573407,23.1135734 26.9695291,23.4127424 26.5263158,23.634349 C26.0831025,23.8559557 25.6177285,23.966759 25.1301939,23.966759 L25.1301939,23.966759 L0.398891967,23.966759 L0.398891967,13.1966759 L28.7867036,13.1966759 Z M23.966759,19.7451524 L5.11911357,19.7451524 L5.11911357,21.0747922 L22.9030471,21.0747922 C23.2132964,21.0747922 23.468144,20.9529086 23.66759,20.7091413 C23.867036,20.465374 23.966759,20.166205 23.966759,19.8116343 L23.966759,19.8116343 L23.966759,19.7451524 Z M23.966759,16.1551247 L5.11911357,16.1551247 L5.11911357,17.4847645 L23.966759,17.4847645 L23.966759,16.1551247 Z" id="形状结合" fill="#1A1A1A" fill-rule="nonzero"></path>
                            <polygon id="路径" fill="#1A1A1A" fill-rule="nonzero" points="39.9224377 9.20775623 39.9224377 8.3767313 44.4764543 8.3767313 44.4764543 6.61495845 39.9224377 6.61495845 39.9224377 5.45152355 44.4764543 5.45152355 44.4764543 3.68975069 39.9224377 3.68975069 39.9224377 2.52631579 44.4764543 2.52631579 44.4764543 0.764542936 39.9224377 0.764542936 39.9224377 0 35.434903 0 35.434903 0.764542936 30.8808864 0.764542936 30.8808864 2.52631579 35.434903 2.52631579 35.434903 3.68975069 30.8808864 3.68975069 30.8808864 5.45152355 35.434903 5.45152355 35.434903 6.61495845 30.8808864 6.61495845 30.8808864 8.3767313 35.434903 8.3767313 35.434903 9.20775623"></polygon>
                            <polygon id="路径" fill="#1A1A1A" fill-rule="nonzero" points="54.9473684 9.20775623 54.9473684 8.3767313 59.501385 8.3767313 59.501385 6.61495845 54.9473684 6.61495845 54.9473684 5.45152355 59.501385 5.45152355 59.501385 3.68975069 54.9473684 3.68975069 54.9473684 2.52631579 59.501385 2.52631579 59.501385 0.764542936 54.9473684 0.764542936 54.9473684 0 50.4598338 0 50.4598338 0.764542936 45.9058172 0.764542936 45.9058172 2.52631579 50.4598338 2.52631579 50.4598338 3.68975069 45.9058172 3.68975069 45.9058172 5.45152355 50.4598338 5.45152355 50.4598338 6.61495845 45.9058172 6.61495845 45.9058172 8.3767313 50.4598338 8.3767313 50.4598338 9.20775623"></polygon>
                            <path d="M55.6786704,18.0498615 C56.5207756,18.0498615 57.2409972,17.7617729 57.8393352,17.1855956 C58.4376731,16.6094183 58.7590028,15.900277 58.8033241,15.0581717 L58.8033241,15.0581717 L58.8033241,10.0387812 L31.6121884,10.0387812 L31.6121884,12.099723 L54.3157895,12.099723 L54.3157895,13.2631579 L31.6121884,13.2631579 L31.6121884,15.0581717 L54.3157895,15.0581717 L54.3157895,15.7562327 C54.3157895,16.1108033 54.1385042,16.2880886 53.7839335,16.2880886 L53.7839335,16.2880886 L31.6121884,16.2880886 L31.6121884,18.0498615 L55.6786704,18.0498615 Z" id="路径" fill="#1A1A1A" fill-rule="nonzero"></path>
                            <polygon id="路径" fill="#1A1A1A" fill-rule="nonzero" points="50.7590028 21.3074792 49.8947368 18.9806094 45.1745152 18.9806094 46.0387812 21.3074792"></polygon>
                            <path d="M53.5180055,24 L54.2825485,22.0387812 L42.6149584,22.0387812 C42.5263158,22.0387812 42.4210526,22.0221607 42.299169,21.9889197 C42.1772853,21.9556787 42.1163435,21.8171745 42.1163435,21.5734072 L42.1163435,21.5734072 L42.1163435,18.9806094 L37.2299169,18.9806094 L37.2299169,22.0720222 C37.2299169,22.2714681 37.2686981,22.4819945 37.3462604,22.7036011 C37.4238227,22.9252078 37.5512465,23.1357341 37.7285319,23.3351801 C37.9058172,23.534626 38.1274238,23.6952909 38.3933518,23.8171745 C38.6592798,23.9390582 38.9806094,24 39.3573407,24 L39.3573407,24 L53.5180055,24 Z" id="路径" fill="#1A1A1A" fill-rule="nonzero"></path>
                            <polygon id="路径" fill="#1A1A1A" fill-rule="nonzero" points="35.0692521 24 36.166205 19.5789474 31.6786704 19.5789474 30.5817175 24"></polygon>
                            <polygon id="路径" fill="#1A1A1A" fill-rule="nonzero" points="59.734072 24 58.6703601 19.5789474 54.2825485 19.5789474 55.3462604 24"></polygon>
                            <polygon id="路径" fill="#1A1A1A" fill-rule="nonzero" points="67.5457064 23.933518 67.5457064 8.24376731 69.8060942 8.24376731 69.8060942 4.98614958 67.5457064 4.98614958 67.5457064 0.0664819945 63.4238227 0.0664819945 63.4238227 4.98614958 61.1301939 4.98614958 61.1301939 8.24376731 63.4238227 8.24376731 63.4238227 23.933518"></polygon>
                            <path d="M76.6537396,23.933518 L79.6454294,5.21883657 L81.6731302,5.21883657 L81.6731302,19.9445983 C81.6731302,20.1440443 81.6066482,20.3157895 81.4736842,20.4598338 C81.3407202,20.6038781 81.1745152,20.6759003 80.9750693,20.6759003 L80.1772853,20.6759003 L78.7146814,23.933518 C81.3370268,23.933518 82.877193,23.933518 83.3351801,23.933518 C83.7931671,23.933518 84.6131117,23.933518 85.7950139,23.933518 C85.7950139,22.7294552 85.7950139,21.8984303 85.7950139,21.4404432 C85.7950139,20.9824561 85.7950139,17.5364728 85.7950139,11.1024931 L85.7950139,8.04432133 L85.7950139,1.96121884 L80.1440443,1.96121884 L80.4432133,0.0997229917 L76.3213296,0.0997229917 L76.0221607,1.96121884 L71.3019391,1.96121884 L71.3019391,5.21883657 L75.5235457,5.21883657 L72.531856,23.933518 L76.6537396,23.933518 Z" id="路径" fill="#1A1A1A" fill-rule="nonzero"></path>
                            <path d="M86.8472969,8.04432133 L90.5407411,8.04432133 L90.5407411,19.7091413 C90.5407411,20.261426 90.9884563,20.7091413 91.5407411,20.7091413 L113.082346,20.7091413 L113.082346,20.7091413 L111.719465,24 L88.8419511,23.9388496 C87.7394726,23.9359027 86.8472969,23.0413391 86.8472969,21.9388568 L86.8472969,8.04432133 L86.8472969,8.04432133 Z" id="矩形" fill="#3F72FF" fill-rule="evenodd"></path>
                            <polygon id="路径" fill="#1A1A1A" fill-rule="nonzero" points="71.66759 19.7451524 73.9279778 8.04432133 70.6703601 8.04432133 68.4432133 19.7451524"></polygon>
                            <path d="M96.033241,19.9113573 L96.033241,3.29085873 L115.612188,3.29085873 C115.900277,3.29085873 116.144044,3.39058172 116.34349,3.5900277 C116.542936,3.78947368 116.642659,4.04432133 116.642659,4.35457064 L116.642659,19.6786704 C116.642659,19.966759 116.542936,20.2105263 116.34349,20.4099723 C116.144044,20.6094183 115.900277,20.7091413 115.612188,20.7091413 L114.914127,20.7091413 L113.551247,24 L117.307479,24 C117.795014,24 118.260388,23.9058172 118.703601,23.7174515 C119.146814,23.5290859 119.534626,23.2686981 119.867036,22.9362881 C120.199446,22.6038781 120.459834,22.2160665 120.648199,21.7728532 C120.836565,21.3296399 120.930748,20.8531856 120.930748,20.3434903 L120.930748,3.6565097 C120.930748,3.16897507 120.836565,2.70360111 120.648199,2.26038781 C120.459834,1.81717452 120.199446,1.42936288 119.867036,1.09695291 C119.534626,0.764542936 119.146814,0.498614958 118.703601,0.299168975 C118.260388,0.0997229917 117.795014,0 117.307479,0 L91.7451524,0 L91.7451524,18.9113573 C91.7451524,19.4636421 92.1928676,19.9113573 92.7451524,19.9113573 L96.033241,19.9113573 L96.033241,19.9113573 Z" id="路径" fill="#1A1A1A" fill-rule="nonzero"></path>
                            <polygon id="路径" fill="#1A1A1A" fill-rule="nonzero" points="114.880886 7.97783934 114.880886 4.68698061 97.8282548 4.68698061 97.8282548 7.97783934"></polygon>
                            <path d="M114.880886,9.6398892 L114.880886,16.2548476 L114.873038,16.5069252 C114.846876,16.9224377 114.755309,17.3148661 114.598338,17.6842105 C114.409972,18.1274238 114.149584,18.5152355 113.817175,18.8476454 C113.484765,19.1800554 113.096953,19.4404432 112.65374,19.6288089 C112.210526,19.8171745 111.734072,19.9113573 111.224377,19.9113573 L111.224377,19.9113573 L97.8282548,19.9113573 L97.8282548,9.6398892 L114.880886,9.6398892 Z M110.260388,12.9307479 L102.448753,12.9307479 L102.448753,16.6204986 L109.229917,16.6204986 C109.518006,16.6204986 109.761773,16.5207756 109.961219,16.3213296 C110.160665,16.1218837 110.260388,15.867036 110.260388,15.5567867 L110.260388,15.5567867 L110.260388,12.9307479 Z" id="形状结合" fill="#1A1A1A" fill-rule="nonzero"></path>
                        </g>
                    </g>
                </g>
            </g>
        </g>
    </g>
</svg>