<?xml version="1.0" encoding="UTF-8"?>
<svg width="160px" height="160px" viewBox="0 0 160 160" version="1.1" xmlns="http://www.w3.org/2000/svg" xmlns:xlink="http://www.w3.org/1999/xlink">
    <title>logo图标</title>
    <defs>
        <rect id="path-1" x="0" y="0" width="160" height="160"></rect>
        <polygon id="path-3" points="0 0 48.5605815 0 48.5605815 48.419731 0 48.419731"></polygon>
        <polygon id="path-5" points="0 0 43.3107889 0 43.3107889 42.5308448 0 42.5308448"></polygon>
    </defs>
    <g id="专家端" stroke="none" stroke-width="1" fill="none" fill-rule="evenodd">
        <g id="pc" transform="translate(-1150.000000, -119.000000)">
            <g id="编组-2-+-编组-蒙版备份" transform="translate(1150.000000, 119.000000)">
                <mask id="mask-2" fill="white">
                    <use xlink:href="#path-1"></use>
                </mask>
                <g id="蒙版"></g>
                <g id="编组-2" mask="url(#mask-2)">
                    <g transform="translate(37.011505, 114.101292)">
                        <path d="M20.3854129,0 L20.3854129,6.06070661 L20.3775284,6.27155418 C20.356503,6.5489689 20.293427,6.81152211 20.1883003,7.05921383 C20.056892,7.36882847 19.8752392,7.63974128 19.6433421,7.87195226 C19.411445,8.10416324 19.1408984,8.28606184 18.8317022,8.41764807 C18.522506,8.54923429 18.1901202,8.6150274 17.8345446,8.6150274 L17.8345446,8.6150274 L11.1790974,8.6150274 L11.1790974,0 L20.3854129,0 Z M17.162043,2.29888871 L14.4024673,2.29888871 L14.4024673,6.31613869 L16.4431619,6.31613869 C16.6441394,6.31613869 16.8141973,6.24647539 16.9533356,6.1071488 C17.0924738,5.96782222 17.162043,5.79753416 17.162043,5.59628465 L17.162043,5.59628465 L17.162043,2.29888871 Z" id="形状结合" fill="#1A1A1A" fill-rule="nonzero"></path>
                        <polygon id="路径" fill="#1A1A1A" fill-rule="nonzero" points="3.77754418 8.6150274 5.81695453 6.85022394 7.30016206 8.6150274 10.5215034 8.6150274 8.50526818 6.24647539 10.2202269 6.24647539 10.2202269 3.94758668 7.20746159 3.94758668 7.20746159 3.11162715 10.0811762 3.11162715 10.0811762 0.812738434 4.00929536 0.812738434 4.28739677 0 1.08923053 0 0 3.11162715 3.98612024 3.11162715 3.98612024 3.94758668 0 3.94758668 0 6.24647539 2.78101412 6.24647539 0.0463502353 8.6150274"></polygon>
                        <path d="M20.3854129,9.27772182 L20.3854129,14.1129366 L20.3692425,14.3740873 C20.3384419,14.7170521 20.2706804,15.0390725 20.1659582,15.3401485 C20.0350554,15.7164935 19.8541016,16.04375 19.6230967,16.321918 C19.3920918,16.600086 19.1225861,16.8209842 18.8145795,16.9846124 C18.506573,17.1482407 18.1831661,17.2300548 17.8443589,17.2300548 L17.8443589,17.2300548 L0.657593964,17.2300548 L0.657593964,9.27772182 L20.3854129,9.27772182 Z M17.0358417,14.1129366 L3.93786362,14.1129366 L3.93786362,15.0947061 L16.2966261,15.0947061 C16.5122306,15.0947061 16.6893344,15.0047106 16.8279373,14.8247195 C16.9665403,14.6447284 17.0358417,14.4238303 17.0358417,14.1620251 L17.0358417,14.1620251 L17.0358417,14.1129366 Z M17.0358417,11.462159 L3.93786362,11.462159 L3.93786362,12.4439285 L17.0358417,12.4439285 L17.0358417,11.462159 Z" id="形状结合" fill="#1A1A1A" fill-rule="nonzero"></path>
                        <polygon id="路径" fill="#1A1A1A" fill-rule="nonzero" points="28.2604623 6.62694415 28.2604623 6.0288445 31.5645103 6.0288445 31.5645103 4.76087324 28.2604623 4.76087324 28.2604623 3.92353372 31.5645103 3.92353372 31.5645103 2.65556246 28.2604623 2.65556246 28.2604623 1.81822294 31.5645103 1.81822294 31.5645103 0.550251681 28.2604623 0.550251681 28.2604623 0 25.0046487 0 25.0046487 0.550251681 21.7006008 0.550251681 21.7006008 1.81822294 25.0046487 1.81822294 25.0046487 2.65556246 21.7006008 2.65556246 21.7006008 3.92353372 25.0046487 3.92353372 25.0046487 4.76087324 21.7006008 4.76087324 21.7006008 6.0288445 25.0046487 6.0288445 25.0046487 6.62694415"></polygon>
                        <polygon id="路径" fill="#1A1A1A" fill-rule="nonzero" points="38.7819658 6.62694415 38.7819658 6.0288445 42.0860137 6.0288445 42.0860137 4.76087324 38.7819658 4.76087324 38.7819658 3.92353372 42.0860137 3.92353372 42.0860137 2.65556246 38.7819658 2.65556246 38.7819658 1.81822294 42.0860137 1.81822294 42.0860137 0.550251681 38.7819658 0.550251681 38.7819658 0 35.5261521 0 35.5261521 0.550251681 32.2221042 0.550251681 32.2221042 1.81822294 35.5261521 1.81822294 35.5261521 2.65556246 32.2221042 2.65556246 32.2221042 3.92353372 35.5261521 3.92353372 35.5261521 4.76087324 32.2221042 4.76087324 32.2221042 6.0288445 35.5261521 6.0288445 35.5261521 6.62694415"></polygon>
                        <path d="M39.2369758,12.5911939 C39.8275777,12.5911939 40.3326977,12.4005432 40.7523359,12.0192419 C41.1719741,11.6379405 41.3973354,11.1686465 41.4284197,10.61136 L41.4284197,10.61136 L41.4284197,7.28963857 L22.3581948,7.28963857 L22.3581948,8.65352417 L38.2811332,8.65352417 L38.2811332,9.42345959 L22.3581948,9.42345959 L22.3581948,10.61136 L38.2811332,10.61136 L38.2811332,11.0733212 C38.2811332,11.3079682 38.156796,11.4252917 37.9081215,11.4252917 L37.9081215,11.4252917 L22.3581948,11.4252917 L22.3581948,12.5911939 L39.2369758,12.5911939 Z" id="路径" fill="#1A1A1A" fill-rule="nonzero"></path>
                        <polygon id="路径" fill="#1A1A1A" fill-rule="nonzero" points="35.510074 15.2419716 34.8994511 13.2538883 31.5645103 13.2538883 32.1751332 15.2419716"></polygon>
                        <path d="M37.60976,16.5673604 L38.1404499,15.2726925 L30.0416611,15.2726925 C29.9801318,15.2726925 29.9070658,15.2617207 29.8224631,15.2397772 C29.7378604,15.2178337 29.695559,15.1264023 29.695559,14.9654832 L29.695559,14.9654832 L29.695559,13.2538883 L26.3037585,13.2538883 L26.3037585,15.294636 C26.3037585,15.4262972 26.3306776,15.5652728 26.3845157,15.711563 C26.4383538,15.8578531 26.5268021,15.9968288 26.6498606,16.1284899 C26.7729192,16.2601511 26.9267423,16.3662114 27.1113301,16.446671 C27.2959179,16.5271306 27.5189614,16.5673604 27.7804608,16.5673604 L27.7804608,16.5673604 L37.60976,16.5673604 Z" id="路径" fill="#1A1A1A" fill-rule="nonzero"></path>
                        <polygon id="路径" fill="#1A1A1A" fill-rule="nonzero" points="24.8711431 17.2300548 25.6461646 13.9165827 22.4756223 13.9165827 21.7006008 17.2300548"></polygon>
                        <polygon id="路径" fill="#1A1A1A" fill-rule="nonzero" points="42.0860137 17.2300548 41.3161476 13.9165827 38.1404499 13.9165827 38.910316 17.2300548"></polygon>
                        <polygon id="路径" fill="#1A1A1A" fill-rule="nonzero" points="47.1200088 16.5673604 47.1200088 5.67628225 48.6619533 5.67628225 48.6619533 3.41499908 47.1200088 3.41499908 47.1200088 0 44.3082278 0 44.3082278 3.41499908 42.7436076 3.41499908 42.7436076 5.67628225 44.3082278 5.67628225 44.3082278 16.5673604"></polygon>
                        <path d="M53.8623753,16.5673604 L56.0342453,3.55840098 L57.5062905,3.55840098 L57.5062905,13.7945804 C57.5062905,13.9332194 57.4580267,14.052603 57.3614991,14.1527312 C57.2649716,14.2528593 57.1443121,14.3029234 56.9995208,14.3029234 L56.4203555,14.3029234 L55.3585524,16.5673604 C57.2622903,16.5673604 58.3804011,16.5673604 58.7128849,16.5673604 C59.0453687,16.5673604 59.640622,16.5673604 60.4986447,16.5673604 C60.4986447,15.7303916 60.4986447,15.1527291 60.4986447,14.8343729 C60.4986447,14.5160167 60.4986447,12.1206429 60.4986447,7.64825145 L60.4986447,5.52245346 L60.4986447,1.29396399 L56.3962236,1.29396399 L56.6134106,0 L53.6210564,0 L53.4038694,1.29396399 L49.9771412,1.29396399 L49.9771412,3.55840098 L53.0418911,3.55840098 L50.8700211,16.5673604 L53.8623753,16.5673604 Z" id="路径" fill="#1A1A1A" fill-rule="nonzero"></path>
                        <path d="M61.1562386,5.96424974 L63.7484207,5.96424974 L63.7484207,13.9064825 C63.7484207,14.4587673 64.196136,14.9064825 64.7484207,14.9064825 L79.5688696,14.9064825 L79.5688696,14.9064825 L78.6123544,17.2300548 L63.1508605,17.1884776 C62.0483947,17.185513 61.1562386,16.2909547 61.1562386,15.1884849 L61.1562386,5.96424974 L61.1562386,5.96424974 Z" id="矩形" fill="#3F72FF" fill-rule="evenodd"></path>
                        <polygon id="路径" fill="#1A1A1A" fill-rule="nonzero" points="50.3238726 13.9165827 51.9499231 5.96424974 49.6064974 5.96424974 48.0043593 13.9165827"></polygon>
                        <path d="M67.4393317,13.744943 L67.4393317,2.27170177 L81.1147397,2.27170177 C81.3159625,2.27170177 81.4862279,2.34054122 81.6255359,2.47822011 C81.764844,2.61589901 81.834498,2.79182204 81.834498,3.00598921 L81.834498,13.5843177 C81.834498,13.7831872 81.764844,13.9514614 81.6255359,14.0891403 C81.4862279,14.2268192 81.3159625,14.2956586 81.1147397,14.2956586 L80.6271615,14.2956586 L79.6752231,16.5673604 L82.2988582,16.5673604 C82.639389,16.5673604 82.9644412,16.5023454 83.2740146,16.3723153 C83.5835881,16.2422852 83.8544649,16.0625378 84.086645,15.8330729 C84.3188251,15.6036081 84.5006995,15.3358992 84.6322682,15.0299461 C84.763837,14.723993 84.8296213,14.3950934 84.8296213,14.0432473 L84.8296213,2.52411308 C84.8296213,2.18756467 84.763837,1.86631391 84.6322682,1.56036081 C84.5006995,1.25440771 84.3188251,0.986698749 84.086645,0.757233923 C83.8544649,0.527769098 83.5835881,0.344197238 83.2740146,0.206518343 C82.9644412,0.0688394476 82.639389,0 82.2988582,0 L64.4442084,0 L64.4442084,12.744943 C64.4442084,13.2972278 64.8919237,13.744943 65.4442084,13.744943 L67.4393317,13.744943 L67.4393317,13.744943 Z" id="路径" fill="#1A1A1A" fill-rule="nonzero"></path>
                        <polygon id="路径" fill="#1A1A1A" fill-rule="nonzero" points="80.8840575 5.96424974 80.8840575 3.31347208 69.0473662 3.31347208 69.0473662 5.96424974"></polygon>
                        <path d="M80.8840575,6.62694415 L80.8840575,11.3215658 L80.8762126,11.5357726 C80.8552926,11.8176072 80.7925328,12.0843435 80.687933,12.3359815 C80.5571833,12.650529 80.3764411,12.9257581 80.1457064,13.1616687 C79.9149717,13.3975793 79.6457812,13.582376 79.3381349,13.7160587 C79.0304886,13.8497414 78.6997688,13.9165827 78.3459756,13.9165827 L78.3459756,13.9165827 L69.0473662,13.9165827 L69.0473662,6.62694415 L80.8840575,6.62694415 Z M77.6768449,8.96245942 L72.2545789,8.96245942 L72.2545789,11.5810675 L76.9615672,11.5810675 C77.1615373,11.5810675 77.3307428,11.5102943 77.4691836,11.3687479 C77.6076244,11.2272015 77.6768449,11.0463367 77.6768449,10.8261534 L77.6768449,10.8261534 L77.6768449,8.96245942 Z" id="形状结合" fill="#1A1A1A" fill-rule="nonzero"></path>
                    </g>
                </g>
                <g id="编组" mask="url(#mask-2)">
                    <g transform="translate(37.345675, 30.327160)">
                        <g>
                            <mask id="mask-4" fill="white">
                                <use xlink:href="#path-3"></use>
                            </mask>
                            <g id="Clip-2"></g>
                            <path d="M39.3144565,48.419731 L9.24612505,48.419731 C4.14789108,48.419731 0,44.28397 0,39.2006453 L0,9.22024591 C0,4.13563205 4.14789108,-0.00012892023 9.24612505,-0.00012892023 L39.3144565,-0.00012892023 C43.9355795,-0.00012892023 47.8753002,3.44075201 48.4804165,8.00323894 L42.0710973,8.85024485 C41.8900796,7.47982281 40.7044137,6.44588256 39.3144565,6.44588256 L9.24612505,6.44588256 C7.71264661,6.44588256 6.46491753,7.68996278 6.46491753,9.22024591 L6.46491753,39.2006453 C6.46491753,40.7296392 7.71264661,41.9737195 9.24612505,41.9737195 L39.3144565,41.9737195 C40.8479349,41.9737195 42.095664,40.7296392 42.095664,39.2006453 L42.095664,28.6343433 L48.5605815,28.6343433 L48.5605815,39.2006453 C48.5605815,44.28397 44.4126904,48.419731 39.3144565,48.419731" id="Fill-1" fill="#3F72FF" mask="url(#mask-4)"></path>
                        </g>
                        <g opacity="0.3" transform="translate(24.280291, 13.086414)">
                            <path d="M6.46490031,9.21913472 C6.46490031,7.68884344 7.71262607,6.44604581 9.24610043,6.44604581 L39.3143518,6.44604581 C40.8478261,6.44604581 42.0955519,7.68884344 42.0955519,9.21913472 L42.0955519,13.8822043 L48.4272753,7.71720605 C47.7032064,3.34678699 43.8992591,0 39.3143518,0 L9.24610043,0 C4.14788004,0 0,4.13578299 0,9.21913472 L0,24.2100589 L6.46490031,24.2100589 L6.46490031,9.21913472 Z" id="Fill-3" fill="#3F72FF"></path>
                            <path d="M42.0956812,35.5057228 L42.0956812,39.199307 C42.0956812,40.7295983 40.8479554,41.9736851 39.3144811,41.9736851 L35.4549356,41.9736851 L28.8348777,48.419731 L39.3144811,48.419731 C44.4127015,48.419731 48.5605815,44.283948 48.5605815,39.199307 L48.5605815,29.2105144 L42.0956812,35.5057228 Z" id="Fill-5" fill="#3F72FF"></path>
                            <path d="M13.2430897,48.0064105 L15.622173,41.9729116 L9.24648832,41.9729116 C7.71301397,41.9729116 6.46528821,40.7288248 6.46528821,39.1998227 L0.000387894019,39.1998227 C0.000387894019,44.2831744 4.14826793,48.4189574 9.24648832,48.4189574 L13.0801742,48.4189574 L13.2430897,48.0064105 Z" id="Fill-7" fill="#3F72FF"></path>
                        </g>
                        <g transform="translate(41.342117, 20.283941)">
                            <mask id="mask-6" fill="white">
                                <use xlink:href="#path-5"></use>
                            </mask>
                            <g id="Clip-10"></g>
                            <polygon id="Fill-9" fill="#3F72FF" mask="url(#mask-6)" points="37.8331716 0 43.3116927 5.48107528 9.02800369 38.9798365 0 42.5309739 3.54948257 33.4987613"></polygon>
                        </g>
                    </g>
                </g>
            </g>
        </g>
    </g>
</svg>