<?xml version="1.0" encoding="UTF-8"?>
<svg width="64px" height="64px" viewBox="0 0 64 64" version="1.1" xmlns="http://www.w3.org/2000/svg" xmlns:xlink="http://www.w3.org/1999/xlink">
    <title>离线备份</title>
    <g id="专家端" stroke="none" stroke-width="1" fill="none" fill-rule="evenodd">
        <g id="离线备份" fill="#999999" fill-rule="nonzero">
            <rect id="矩形" opacity="0" x="0" y="0" width="64" height="64"></rect>
            <path d="M15,54.451505 L50,54.451505 L50,59 L15,59 L15,54.451505 Z M57.7272727,8 L7.2727273,8 C6.02272728,8 5,9.02341138 5,10.2742475 L5,49.2434782 C5,50.4943144 6.02272728,51.5177258 7.2727273,51.5177258 L57.7272727,51.5177258 C58.9772727,51.5177258 60,50.4943144 60,49.2434782 L60,10.2742475 C60,9.02341138 58.9772727,8 57.7272727,8 Z M41.7045455,36.155184 L38.4090909,39.2936455 L32.4204545,32.9826087 L26.1136364,38.9752508 L22.9772727,35.677592 L29.2840909,29.6849498 L23.2954545,23.373913 L26.5909091,20.2354515 L32.5795455,26.5464883 L38.8863636,20.5538462 L42.0227273,23.851505 L35.7159091,29.8441471 L41.7045455,36.155184 Z" id="形状"></path>
        </g>
    </g>
</svg>